<svg width="27" height="27" viewBox="0 0 27 27" fill="none" xmlns="http://www.w3.org/2000/svg">
<g clip-path="url(#clip0_51_1417)">
<path fill-rule="evenodd" clip-rule="evenodd" d="M5.39961 1.7998C4.92222 1.7998 4.46438 1.98945 4.12682 2.32701C3.78925 2.66458 3.59961 3.12241 3.59961 3.5998V23.3998C3.59961 23.8772 3.78925 24.335 4.12682 24.6726C4.46438 25.0102 4.92222 25.1998 5.39961 25.1998H18.8996C19.1383 25.1998 19.3672 25.105 19.536 24.9362C19.7048 24.7674 19.7996 24.5385 19.7996 24.2998C19.7996 24.0611 19.7048 23.8322 19.536 23.6634C19.3672 23.4946 19.1383 23.3998 18.8996 23.3998H5.39961V3.5998H18.8996C19.1383 3.5998 19.3672 3.50498 19.536 3.3362C19.7048 3.16742 19.7996 2.9385 19.7996 2.6998C19.7996 2.46111 19.7048 2.23219 19.536 2.06341C19.3672 1.89463 19.1383 1.7998 18.8996 1.7998H5.39961ZM22.6868 8.8126C22.5178 8.64361 22.2886 8.54867 22.0496 8.54867C21.8106 8.54867 21.5814 8.64361 21.4124 8.8126C21.2434 8.9816 21.1485 9.21081 21.1485 9.4498C21.1485 9.6888 21.2434 9.91801 21.4124 10.087L23.927 12.5998H11.6996C11.4609 12.5998 11.232 12.6946 11.0632 12.8634C10.8944 13.0322 10.7996 13.2611 10.7996 13.4998C10.7996 13.7385 10.8944 13.9674 11.0632 14.1362C11.232 14.305 11.4609 14.3998 11.6996 14.3998H23.927L21.4124 16.9126C21.2434 17.0816 21.1485 17.3108 21.1485 17.5498C21.1485 17.7888 21.2434 18.018 21.4124 18.187C21.5814 18.356 21.8106 18.4509 22.0496 18.4509C22.2886 18.4509 22.5178 18.356 22.6868 18.187L26.7368 14.137C26.8206 14.0534 26.8871 13.9541 26.9325 13.8447C26.9779 13.7354 27.0012 13.6182 27.0012 13.4998C27.0012 13.3814 26.9779 13.2642 26.9325 13.1549C26.8871 13.0455 26.8206 12.9462 26.7368 12.8626L22.6868 8.8126Z" fill="#FBFBFB" stroke="#FBFBFB"/>
</g>
<defs>
<clipPath id="clip0_51_1417">
<rect width="27" height="27" fill="white"/>
</clipPath>
</defs>
</svg>
